<svg version="1.0" xmlns="http://www.w3.org/2000/svg" fill="#1971c2" width="1600" height="1600" viewBox="0 0 1200 1200">
    <path d="M157 600v443h886V157H157v443zm870 0v427H173V173h854v427z"/>
    <path d="M880.1 659.6c-20.1 4.3-37.2 21.5-41.6 41.8-1.7 8-1.1 19.5 1.5 27.7 3.7 12.2 14.3 25 25.2 30.5 5.2 2.6 6.3 2.6 7.1-.5.4-1.6-.5-2.5-4.1-4.3-2.5-1.2-7.3-4.9-10.7-8.3-9.8-9.9-14.5-21.9-14.1-35.5.9-25.7 20.9-45.7 46.6-46.6 36.9-1.2 60.7 36.7 44.3 70.5-3.2 6.6-13.2 16.8-19.5 19.9-3.7 1.8-4.5 2.6-4.1 4.3.3 1.1 1.2 2.3 1.9 2.6 2.3.9 10.6-4.7 17.4-11.6 25.1-25.6 19-67.2-12.3-85-10.6-6-25.2-8.2-37.6-5.5z"/>
    <path d="M880 681.6c-9.3 3.3-17.5 11.8-20.5 21.2-2.3 6.9-1.6 17 1.5 23.2 2.5 5.2 9.2 12.5 13.3 14.6 2.6 1.4 2.8 1.4 3.8-1.3.8-2 .7-2.9-.2-3.2-.6-.2-3-2-5.2-4-17.9-16.1-6.4-46 17.8-46.1 11 0 21 7 25 17.3 2.2 5.9 1.6 15.5-1.3 21.3-2 3.8-8.6 10.7-11.1 11.5-.9.3-1 1.2-.2 3.2 1 2.7 1.2 2.7 3.8 1.3 4-2.1 10.7-9.4 13.4-14.6 2-3.8 2.4-6 2.4-13.5 0-7.8-.4-9.7-2.7-14-3.3-6.3-9.8-12.8-15.7-15.6-6.1-2.9-17.8-3.6-24.1-1.3z"/>
    <path d="M888.3 702.5c-8 3.4-9 14.6-1.6 19.2l2.8 1.8V744c-.1 11.3.1 21.1.3 21.7.2.7 1.4 1.3 2.7 1.3 1.3 0 2.5-.6 2.7-1.3.2-.6.4-10.4.3-21.7v-20.5l2.8-1.8c1.5-.9 3.4-3.2 4.2-4.9 3.8-9.1-5.1-18.1-14.2-14.3zm8.6 7.9c1.7 4.4-1.6 8-6.2 6.8-2.2-.6-3.6-3.8-2.9-6.5 1-3.9 7.7-4.1 9.1-.3zM390 817.5v7.5h570v-15H390v7.5zM725.9 865.6c-6.2 1.9-14.1 9.1-17.3 15.7-3.6 7.5-5 17-3.8 26.1 2.5 19.1 13.5 30.4 30.2 31.4 4.1.2 9.4-.1 11.7-.7 10-2.7 18.7-11.8 21.9-22.9 2.1-7.2 2.1-20.2 0-27.4-3-10.6-12.1-20.2-21.4-22.8-5.2-1.4-15.8-1.1-21.3.6zm17.4 9.5c9.5 2.6 14.1 11.2 14.1 26.4 0 11.3-2.2 18.2-7 22.4-7.7 6.8-19.8 6.4-26.6-.8-4.8-5-6.2-10.3-6.2-22.6 0-7.9.4-10.9 2-14.5 4.4-9.7 13.3-13.8 23.7-10.9zM818.1 865.2c-1.9.7-5.4 3-7.8 5.3l-4.3 4.1-.8-4-.8-4.1-5.2-.3-5.2-.3V970h13.2l-.4-20.4-.4-20.4 4.3 3.8c5.3 4.6 11.4 6.4 19.6 5.8 10.6-.9 16.8-5.6 22.1-16.8 3-6.3 3.1-7 3.1-20 0-10.9-.4-14.5-1.9-18.5-5-13.1-12.2-18.7-24.5-19.1-4.2-.2-9.1.2-11 .8zm14.9 11c3.5 1.8 5.1 3.5 7 7.3 2.3 4.6 2.5 6.1 2.5 18 0 11.6-.3 13.5-2.3 17.7-4 8.1-11.2 11.2-20.2 8.8-9.5-2.6-13-9.9-13-27.4 0-18.6 5.2-26.2 18-26.5 2-.1 5.6.9 8 2.1zM899.2 865.9c-9.7 3.4-15.2 11.3-13.7 20 1.4 8.6 5.9 12.3 24.2 19.7 12.5 5.1 15.1 6.7 16.4 10.1 4.4 11.5-14.6 16.9-35.3 9.9l-6.8-2.2v11.4l5.3 1.9c6.6 2.3 29 2.6 35 .4 8.1-2.8 14.7-11.4 14.7-19.1 0-5.4-3.3-11.5-8-14.9-2.3-1.7-9-4.9-14.8-7.2-5.9-2.3-11.9-4.8-13.4-5.5-6.7-3.4-7.4-10.9-1.5-14.1 4.7-2.5 18.4-2.2 26.1.6 6.6 2.3 6.5 2.3 8.7-4.1 1.6-4.8 1.2-5.1-8.3-7.3-9.2-2.1-21.9-1.9-28.6.4zM621.6 881.7c3.6 8.7 10.4 25.2 15.1 36.6l8.6 20.8-2.8 6.6c-1.6 3.6-3.9 7.8-5.2 9.4-3.1 3.6-9.2 5.3-16 4.5l-5.3-.6v4.9c0 5.7.6 6.1 11.4 6.1 11.5 0 18.3-4.7 24.1-16.5 1.3-2.8 9.6-23.6 18.4-46.3l15.9-41.3-6.6.3-6.6.3-6.3 17c-3.5 9.3-8.3 22.7-10.7 29.8l-4.4 12.7-2.1-6.3c-1.2-3.5-6.4-16.9-11.5-29.8l-9.4-23.4-6.6-.3-6.5-.3 6.5 15.8z"/>
</svg>